<?xml version="1.0" encoding="UTF-8"?>
<svg id="Layer_1" xmlns="http://www.w3.org/2000/svg" version="1.1" viewBox="0 0 1024 1024">
  <!-- Generator: Adobe Illustrator 29.8.2, SVG Export Plug-In . SVG Version: 2.1.1 Build 3)  -->
  <defs>
    <style>
      .st0 {
        fill: none;
        stroke: #000;
      }

      .st0, .st1 {
        stroke-miterlimit: 10;
      }

      .st1 {
        stroke: #fff;
      }
    </style>
  </defs>
  <path class="st1" d="M512,157.83c47.81,0,94.2,9.36,137.86,27.83,42.17,17.84,80.05,43.38,112.58,75.9,32.53,32.53,58.06,70.4,75.9,112.58,18.47,43.66,27.83,90.05,27.83,137.86s-9.36,94.2-27.83,137.86c-17.84,42.17-43.38,80.05-75.9,112.58s-70.4,58.06-112.58,75.9c-43.66,18.47-90.05,27.83-137.86,27.83s-94.2-9.36-137.86-27.83c-42.17-17.84-80.05-43.38-112.58-75.9-32.53-32.53-58.06-70.4-75.9-112.58-18.47-43.66-27.83-90.05-27.83-137.86s9.36-94.2,27.83-137.86c17.84-42.17,43.38-80.05,75.9-112.58,32.53-32.53,70.4-58.06,112.58-75.9,43.66-18.47,90.05-27.83,137.86-27.83M512,156.83c-196.16,0-355.17,159.02-355.17,355.17s159.02,355.17,355.17,355.17,355.17-159.02,355.17-355.17-159.02-355.17-355.17-355.17h0Z"/>
  <path d="M512-19.76c71.79,0,141.43,14.06,206.98,41.79,63.32,26.78,120.19,65.12,169.03,113.96,48.84,48.84,87.18,105.7,113.96,169.03,27.73,65.56,41.79,135.2,41.79,206.98s-14.06,141.43-41.79,206.98c-26.78,63.32-65.12,120.19-113.96,169.03s-105.7,87.18-169.03,113.96c-65.56,27.73-135.2,41.79-206.98,41.79s-141.43-14.06-206.98-41.79c-63.32-26.78-120.19-65.12-169.03-113.96s-87.18-105.7-113.96-169.03c-27.73-65.56-41.79-135.2-41.79-206.98s14.06-141.43,41.79-206.98c26.78-63.32,65.12-120.19,113.96-169.03S241.69,48.81,305.02,22.03c65.56-27.73,135.2-41.79,206.98-41.79M512-20.76C217.77-20.76-20.76,217.77-20.76,512s238.52,532.76,532.76,532.76,532.76-238.52,532.76-532.76S806.23-20.76,512-20.76h0Z"/>
  <path id="main" class="st0" d="M681.47,195.71c65.41,33.46,116.58,84.16,152.87,152.87,105.01,61.33,159.55,337,145.54,454.08s87.56,117.07,130.58,67.04,157.15-232.28,94.57-528.59c-200.23-173.44-375.38-230.2-520.11-145.4"/>
  <path id="pivot" class="st0" d="M1044.76,829.54"/>
  <path id="center" class="st0" d="M512,512"/>
</svg>